<?xml version="1.0" encoding="UTF-8"?>
<svg id="Layer_2" data-name="Layer 2" xmlns="http://www.w3.org/2000/svg" viewBox="0 0 383.27 383.41">
  <defs>
    <style>
      .cls-1 {
        fill: #fff;
      }
    </style>
  </defs>
  <g id="Layer_1-2" data-name="Layer 1">
    <path class="cls-1" d="m383.27,230.68v18.72c-.24.55-.62,1.09-.69,1.67-1.48,12.94-5.65,24.99-12.57,35.97-17.66,28.05-43.29,43.66-76,47.71-25.7,3.18-49.53-2.31-71.08-16.75-5.92-3.96-11.27-8.78-16.98-13.29.4,1.16.79,2.31,1.2,3.45,8.8,25.09,17.61,50.17,26.41,75.26h-83.84c9.2-26.24,18.4-52.49,27.92-79.65-1.24,1.12-1.71,1.52-2.15,1.95-36.55,35.35-92.24,39.98-134.17,11.15C6.96,293.24-7.92,251.62,4.13,212.78c11.49-37.03,45.5-63.75,85.33-68.13,6.23-.69,12.54-.7,18.86-1.03-27.32-50.63-4.94-98.87,20.84-120.53,31.18-26.21,74.95-30.68,109.98-10.46,22.89,13.22,37.97,32.77,44.9,58.26,6.91,25.41,3.21,49.73-9.59,73.17,12.54-.66,24.21.33,35.53,3.66,36.18,10.66,60.53,33.36,70.66,70.26,1.14,4.16,1.77,8.46,2.63,12.69Z"/>
  </g>
</svg>