<?xml version="1.0" encoding="UTF-8"?>
<svg id="Layer_2" data-name="Layer 2" xmlns="http://www.w3.org/2000/svg" viewBox="0 0 366.92 366.94">
  <defs>
    <style>
      .cls-1 {
        fill: #fff;
      }
    </style>
  </defs>
  <g id="Layer_1-2" data-name="Layer 1">
    <g>
      <path class="cls-1" d="m183.31,0c-7.78.37-13.85,3.99-18.11,10.94-13.87,22.58-29.53,43.84-47.01,63.76-30.74,35.03-65.92,64.82-105.47,89.47-2.72,1.7-5.5,3.59-7.59,5.97-8.81,10.05-5.96,24.26,6.37,31.83,48.89,30.03,91.04,67.6,125.74,113.3,10.01,13.19,19.02,27.15,28.19,40.96,9.45,14.25,27,14.34,36.27-.08,1.69-2.62,3.31-5.28,4.99-7.9,31.57-49.3,70.95-91.27,118.35-125.61,10.59-7.67,21.77-14.53,32.58-21.9,12.33-8.4,12.4-25.6.22-34.17-1.32-.93-2.71-1.78-4.09-2.63-48.22-29.89-89.79-67.19-124.08-112.4-10-13.19-18.94-27.2-28.16-40.98-4.35-6.5-10.06-10.19-18.21-10.56Z"/>
      <path class="cls-1" d="m183.31,0c8.15.37,13.86,4.06,18.21,10.56,9.22,13.78,18.15,27.79,28.16,40.98,34.29,45.21,75.86,82.5,124.08,112.4,1.38.85,2.76,1.7,4.09,2.63,12.18,8.57,12.12,25.77-.22,34.17-10.81,7.37-21.99,14.22-32.58,21.9-47.4,34.35-86.79,76.31-118.35,125.61-1.68,2.62-3.31,5.28-4.99,7.9-9.27,14.41-26.82,14.32-36.27.08-9.16-13.81-18.17-27.77-28.19-40.96-34.7-45.71-76.85-83.27-125.74-113.3-12.33-7.57-15.18-21.78-6.37-31.83,2.09-2.38,4.87-4.27,7.59-5.97,39.55-24.65,74.73-54.44,105.47-89.47,17.48-19.92,33.15-41.18,47.01-63.76,4.27-6.95,10.33-10.56,18.11-10.94Z"/>
    </g>
  </g>
</svg>