<?xml version="1.0" encoding="UTF-8"?>
<svg width="244.475723px" height="52px" viewBox="0 0 244.475723 52" version="1.1" xmlns="http://www.w3.org/2000/svg" xmlns:xlink="http://www.w3.org/1999/xlink">
    <title>Group 38 Copy</title>
    <g id="Page-1" stroke="none" stroke-width="1" fill="none" fill-rule="evenodd">
        <g id="Large-Copy-28" transform="translate(-47.3301, -36)" fill="#000000">
            <g id="Group-38-Copy" transform="translate(47.3301, 36)">
                <path d="M25.5341052,28.396065 L25.5341052,27.3228503 C25.5341052,26.6084513 25.2480224,25.8924361 24.7469733,25.3202704 L22.2433445,22.8893745 C21.7439117,22.3883254 21.0278965,22.1022426 20.2407646,22.1022426 L11.3010801,22.1022426 C10.5850649,22.1022426 9.87066594,22.3883254 9.29850027,22.8893745 L6.86598803,25.3202704 C6.364939,25.8213194 6.07885617,26.5357184 6.07885617,27.3228503 L6.07885617,28.396065 C6.07885617,29.9703287 7.36703707,31.1857767 8.86856788,31.1857767 L22.7443935,31.1857767 C24.2459243,31.2568933 25.5341052,29.9703287 25.5341052,28.396065 M31.6145777,25.3202704 L31.6145777,33.6894055 C31.6145777,35.262053 30.3263968,36.4791173 28.824866,36.4791173 L8.86856788,36.4791173 C7.29430414,36.4791173 6.07885617,37.7656819 6.07885617,39.268829 L6.07885617,41.2714088 C6.07885617,41.9858078 6.364939,42.701823 6.86598803,43.2739887 L9.29850027,45.7048846 C9.79793302,46.2059336 10.5139482,46.4920165 11.3010801,46.4920165 L21.4578289,46.4920165 C22.1722278,46.4920165 22.8882431,46.2059336 23.4604087,45.7048846 L25.6052219,43.5600715 C26.6784366,42.4868568 28.4660502,42.4868568 29.5392649,43.5600715 C30.6124796,44.6316699 30.6124796,46.4208998 29.5392649,47.4941145 L25.9640376,51.0693418 C25.4629886,51.5703909 24.7469733,51.8564737 23.9598415,51.8564737 L8.58248504,51.8564737 C7.86646981,51.8564737 7.15207087,51.5703909 6.5799052,51.0693418 L0.78551558,45.2765685 C0.286082835,44.7755195 0,44.0595042 0,43.3451053 L0,25.3202704 C0,24.6058715 0.286082835,23.8898562 0.78551558,23.3176906 L6.5799052,17.523301 C7.08095423,17.0238682 7.79535317,16.7377854 8.58248504,16.7377854 L22.9593597,16.7377854 C23.6737586,16.7377854 24.3897739,17.0238682 24.9619395,17.523301 L30.7547129,23.3176906 C31.2557619,23.8898562 31.6145777,24.6058715 31.6145777,25.3202704" id="Fill-21"></path>
                <path d="M41.9135597,16.7374621 L41.9135597,16.7374621 C43.5589401,16.7374621 44.9182376,18.0967597 44.9182376,19.74214 L44.9182376,48.8530888 C44.9182376,50.4984692 43.5589401,51.8561504 41.9135597,51.8561504 C40.2681793,51.8561504 38.9088818,50.4984692 38.9088818,48.8530888 L38.9088818,19.74214 C38.8377652,18.0967597 40.1970627,16.7374621 41.9135597,16.7374621 M41.9135597,0.572973813 L41.9135597,0.572973813 C43.5589401,0.572973813 44.9182376,1.93227135 44.9182376,3.57603543 L44.9182376,5.36526537 C44.9182376,7.01064574 43.5589401,8.36832699 41.9135597,8.36832699 C40.2681793,8.36832699 38.9088818,7.01064574 38.9088818,5.36526537 L38.9088818,3.57603543 C38.8377652,1.93227135 40.1970627,0.572973813 41.9135597,0.572973813" id="Fill-23"></path>
                <path d="M75.8168001,51.0698267 L64.8018028,39.8398632 C63.0853058,38.0522496 60.0806279,39.3388142 60.0806279,41.7713264 L60.0806279,49.2094801 C60.0806279,50.7126272 58.8651799,51.9280752 57.3636491,51.9280752 L56.7914834,51.9280752 C55.2883363,51.9280752 54.0728883,50.7126272 54.0728883,49.2094801 L54.0728883,2.71859507 C54.0728883,1.21706426 55.2883363,0 56.7914834,0 L57.3636491,0 C58.8651799,0 60.0806279,1.21706426 60.0806279,2.71859507 L60.0806279,26.3212371 C60.0806279,28.7537493 63.0853058,30.0419302 64.8018028,28.2527003 L75.315751,17.5237858 C75.8168001,17.0227368 76.5328153,16.6655373 77.2472142,16.6655373 C79.6797265,16.6655373 80.8951745,19.5990986 79.1786774,21.3155956 L68.8780791,31.9006605 C67.8064807,32.9738752 67.8064807,34.6903722 68.8780791,35.7635869 L80.2518921,47.2069003 C81.9683892,48.9233973 80.7513249,51.8569586 78.3204289,51.8569586 L77.8193799,51.8569586 C77.032248,51.9280752 76.3889657,51.6419924 75.8168001,51.0698267" id="Fill-25"></path>
                <path d="M112.795673,39.6257052 L112.795673,29.0406403 C112.795673,27.1802937 112.079658,25.4637967 110.793093,24.1756158 C109.433796,22.8890512 107.717299,22.173036 105.856952,22.173036 L100.206412,22.173036 C98.347682,22.173036 96.631185,22.8890512 95.3430041,24.1756158 C94.0564395,25.4637967 93.3404243,27.2514104 93.3404243,29.0406403 L93.3404243,39.6257052 C93.3404243,41.4860518 94.0564395,43.2025488 95.3430041,44.4891134 C96.631185,45.7772943 98.4187987,46.4916932 100.206412,46.4916932 L105.856952,46.4916932 C107.717299,46.4916932 109.433796,45.7772943 110.721977,44.4891134 C112.079658,43.2025488 112.795673,41.4133188 112.795673,39.6257052 M118.803413,27.0364442 L118.803413,41.628285 C118.803413,43.4886316 118.089014,45.2051286 116.800833,46.4916932 L113.438956,49.8535706 C112.152391,51.1417515 110.363161,51.8561504 108.575547,51.8561504 L97.5605502,51.8561504 C95.7002036,51.8561504 93.9837066,51.1417515 92.697142,49.8535706 L89.3352646,46.4916932 C88.0470837,45.2051286 87.3326847,43.4158987 87.3326847,41.628285 L87.3326847,27.0364442 C87.3326847,25.1777139 88.0470837,23.4612169 89.3352646,22.173036 L92.697142,18.8111586 C93.9837066,17.524594 95.7729365,16.8085788 97.5605502,16.8085788 L108.575547,16.8085788 C110.435894,16.8085788 112.152391,17.524594 113.438956,18.8111586 L116.800833,22.173036 C118.089014,23.4612169 118.803413,25.1777139 118.803413,27.0364442" id="Fill-27"></path>
                <path d="M156.998704,23.8184163 L156.998704,49.8535706 C156.998704,50.9979019 156.069339,51.9288834 154.925007,51.9288834 L152.993544,51.9288834 C151.849213,51.9288834 150.918231,50.9979019 150.918231,49.8535706 L150.918231,26.107079 C150.918231,25.5349134 150.704881,25.0338643 150.274949,24.6055482 L148.416219,22.7452016 C148.057403,22.3880022 147.485237,22.1019193 146.913072,22.1019193 L140.190933,22.1019193 C139.617151,22.1019193 139.117719,22.3168855 138.687786,22.7452016 L133.181096,28.2535084 C132.82228,28.6107079 132.536197,29.1828736 132.536197,29.7550392 L132.536197,49.9246872 C132.536197,51.0690186 131.606832,52 130.462501,52 L128.531037,52 C127.386706,52 126.457341,51.0690186 126.457341,49.9246872 L126.457341,18.8111586 C126.457341,17.6668273 127.386706,16.7374621 128.531037,16.7374621 L129.961452,16.7374621 C131.105783,16.7374621 131.964031,17.5957106 132.036764,18.740042 C132.107881,20.5276556 134.325427,21.3859041 135.611992,20.0993395 L138.401703,17.3096278 C138.758903,16.9524283 139.331068,16.6663455 139.903234,16.6663455 L149.846633,16.6663455 C150.418799,16.6663455 150.918231,16.8796954 151.348164,17.3096278 L156.355422,22.3168855 C156.783738,22.7452016 156.998704,23.2462507 156.998704,23.8184163" id="Fill-29"></path>
                <path d="M168.585867,16.7374621 L168.585867,16.7374621 C170.231247,16.7374621 171.590545,18.0967597 171.590545,19.74214 L171.590545,48.8530888 C171.590545,50.4984692 170.231247,51.8561504 168.585867,51.8561504 C166.940486,51.8561504 165.581189,50.4984692 165.581189,48.8530888 L165.581189,19.74214 C165.581189,18.0967597 166.940486,16.7374621 168.585867,16.7374621 M168.585867,0.572973813 L168.585867,0.572973813 C170.231247,0.572973813 171.590545,1.93227135 171.590545,3.57603543 L171.590545,5.36526537 C171.590545,7.01064574 170.231247,8.36832699 168.585867,8.36832699 C166.940486,8.36832699 165.581189,7.01064574 165.581189,5.36526537 L165.581189,3.57603543 C165.581189,1.93227135 166.940486,0.572973813 168.585867,0.572973813" id="Fill-31"></path>
                <path d="M207.853564,47.5650695 L204.276721,51.1419131 C203.777288,51.6413459 203.061273,51.9274287 202.274141,51.9274287 L187.969999,51.9274287 C187.253984,51.9274287 186.539585,51.6413459 185.967419,51.1419131 L180.17303,45.3475235 C179.671981,44.8464745 179.385898,44.1320755 179.385898,43.3449437 L179.385898,25.3201088 C179.385898,24.6057098 179.671981,23.8896946 180.17303,23.3175289 L185.967419,17.5247556 C186.466852,17.0237066 187.182867,16.7376237 187.969999,16.7376237 L201.916941,16.7376237 C202.632957,16.7376237 203.347356,17.0237066 203.919521,17.5247556 L207.496365,21.0999829 C208.56958,22.1731976 208.56958,23.9608113 207.496365,25.034026 C206.42315,26.1072407 204.635537,26.1072407 203.562322,25.034026 L201.487009,22.9603295 C200.987576,22.4592804 200.271561,22.1731976 199.484429,22.1731976 L190.686978,22.1731976 C189.972579,22.1731976 189.256564,22.4592804 188.684398,22.9603295 L186.324619,25.3201088 C185.82357,25.8211578 185.537487,26.5371731 185.537487,27.3226886 L185.537487,41.2712472 C185.537487,41.9856461 185.82357,42.7016614 186.324619,43.273827 L188.684398,45.6336063 C189.185447,46.1346554 189.899846,46.4207382 190.686978,46.4207382 L199.843245,46.4207382 C200.557644,46.4207382 201.273659,46.1346554 201.845825,45.6336063 L203.919521,43.5599099 C204.992736,42.4866952 206.78035,42.4866952 207.853564,43.5599099 C208.926779,44.7042412 208.926779,46.4918548 207.853564,47.5650695" id="Fill-33"></path>
                <path d="M238.395251,38.9104981 L238.395251,38.6244153 C238.395251,37.4089673 237.393153,36.4779859 236.177705,36.5507188 L221.944679,37.5512006 C221.44363,37.5512006 220.942581,37.7661668 220.656499,38.1233662 L219.727133,39.0543477 C219.369934,39.4115471 219.083851,39.9837128 219.083851,40.5558785 L219.083851,42.9867744 C219.083851,43.5589401 219.297201,44.0599891 219.727133,44.4899215 L221.157548,45.9203357 C221.514747,46.2775352 222.086913,46.563618 222.659078,46.563618 L230.813247,46.563618 C231.385413,46.563618 231.886462,46.3486518 232.314778,45.9203357 L237.894202,40.3409123 C238.180284,40.0548294 238.395251,39.4826638 238.395251,38.9104981 M244.475723,23.8192245 L244.475723,49.8543787 C244.475723,50.9987101 243.544742,51.9280752 242.40041,51.9280752 L240.969996,51.9280752 C239.825665,51.9280752 238.967416,51.0698267 238.8963,49.9254954 C238.825183,48.1378817 236.607637,47.2796332 235.319456,48.5661978 L232.529744,51.3559096 C232.172545,51.713109 231.600379,51.9991919 231.028214,51.9991919 L219.79825,51.9991919 C219.226084,51.9991919 218.725035,51.7858419 218.296719,51.3559096 L213.504428,46.563618 C213.147228,46.2064185 212.861145,45.6342529 212.861145,45.0620872 L212.861145,38.5532986 C212.861145,37.981133 213.074495,37.4800839 213.504428,37.0501515 L217.580704,32.9738752 C217.93952,32.6166757 218.438953,32.4017095 218.940002,32.4017095 L236.321554,31.1862616 C237.393153,31.1135286 238.251401,30.1841635 238.251401,29.1109488 L238.251401,26.0351542 C238.251401,25.4629886 238.038051,24.9635558 237.608119,24.5336234 L235.676656,22.6021602 C235.319456,22.2449608 234.74729,21.9588779 234.175125,21.9588779 L223.303977,21.9588779 C222.731811,21.9588779 222.230762,22.1738441 221.80083,22.6021602 L219.154968,25.2496387 C218.367836,26.0351542 217.008538,26.0351542 216.221406,25.2496387 L215.220925,24.2475406 C214.433793,23.4604087 214.433793,22.1011112 215.220925,21.3155956 L219.226084,17.3088196 C219.583284,16.9516202 220.15545,16.6655373 220.727615,16.6655373 L237.250919,16.6655373 C237.823085,16.6655373 238.324134,16.8805035 238.75245,17.3088196 L243.759708,22.3160774 C244.260757,22.7460098 244.475723,23.2470588 244.475723,23.8192245" id="Fill-35"></path>
            </g>
        </g>
    </g>
</svg>