<?xml version="1.0" encoding="UTF-8"?>
<svg id="Layer_2" data-name="Layer 2" xmlns="http://www.w3.org/2000/svg" viewBox="0 0 367.13 303.73">
  <defs>
    <style>
      .cls-1 {
        fill: #fff;
      }
    </style>
  </defs>
  <g id="Layer_1-2" data-name="Layer 1">
    <g>
      <path class="cls-1" d="m184.58,51.09c-1.89-1.8-2.88-2.72-3.84-3.68-7.35-7.29-14.44-14.86-22.08-21.84C135.52,4.44,108.15-4.07,77.46,1.82,41.04,8.81,15.99,30.5,4.85,65.97c-11.15,35.51-2.94,67.63,23.1,94.07,44.55,45.24,89.78,89.81,134.79,134.59,12.18,12.12,29.62,12.12,41.79,0,45.11-44.86,90.33-89.61,135.11-134.8,22.33-22.54,31.46-50.15,25.89-81.51-6.44-36.18-27.62-61.2-62.34-72.86-34.67-11.65-66.52-4.48-93.84,20.09-8.69,7.82-16.35,16.78-24.77,25.53Z"/>
      <path class="cls-1" d="m184.58,51.09c8.42-8.74,16.08-17.71,24.77-25.53C236.67,1,268.52-6.17,303.19,5.47c34.72,11.66,55.9,36.69,62.34,72.86,5.58,31.36-3.55,58.97-25.89,81.51-44.78,45.19-90,89.94-135.11,134.8-12.18,12.11-29.61,12.11-41.79,0-45.01-44.78-90.24-89.35-134.79-134.59C1.91,133.6-6.29,101.48,4.85,65.97,15.99,30.5,41.04,8.81,77.46,1.82c30.69-5.89,58.06,2.62,81.2,23.75,7.64,6.98,14.73,14.55,22.08,21.84.96.96,1.96,1.88,3.84,3.68Z"/>
    </g>
  </g>
</svg>