<?xml version="1.0" encoding="UTF-8"?>
<svg id="Layer_2" data-name="Layer 2" xmlns="http://www.w3.org/2000/svg" viewBox="0 0 383.22 383.97">
  <defs>
    <style>
      .cls-1 {
        fill: #fff;
      }
    </style>
  </defs>
  <g id="Layer_1-2" data-name="Layer 1">
    <path class="cls-1" d="m383.22,245.46v21.71c-.23.56-.6,1.11-.66,1.7-2.35,22.42-10.81,42.34-25.37,59.44-21.27,24.99-48.55,35.33-80.94,30.64-20.79-3.01-38.09-13.21-51.99-29.05-4.66-5.31-9.46-10.49-14.2-15.72-.34,1.76.02,3.14.49,4.48,7.64,21.77,15.3,43.54,22.95,65.31h-83.84c8.08-23.1,16.17-46.19,24.25-69.29-.28-.15-.57-.31-.85-.46-4.99,5.53-9.96,11.07-14.97,16.58-15.79,17.38-35.46,27.27-58.78,29.01-25.16,1.88-47.42-6.19-65.51-23.55C7.6,311.13-3.05,279.83.75,243.79c2.44-23.1,11.46-43.58,26.97-60.88C81.33,123.1,135.12,63.44,188.81,3.69c.88-.98,1.36-2.33,2.13-3.69,1.65,1.79,2.24,2.42,2.82,3.06,53.52,59.4,107.04,118.79,160.55,178.2,12.39,13.75,20.99,29.58,25.53,47.53,1.39,5.49,2.27,11.11,3.38,16.67Z"/>
  </g>
</svg>